<svg width="161" height="40" viewBox="0 0 161 40" fill="none" xmlns="http://www.w3.org/2000/svg">
<g clip-path="url(#clip0_1_548)">
<path d="M39.527 23.9816V39.466H46.5941V23.9816H51.8145V39.466H58.7856L60.5683 32.9056H58.7856V16.9544H39.527L37.7764 23.9816H39.527V23.9816ZM64.5156 24.0128V39.466H78.2353L79.8908 32.9056H71.5186V31.2265H78.0125L79.3812 25.6917H71.5186V24.0128H78.0125L79.8908 16.3637H73.3649V16.9856H64.5155L62.7649 24.0128H64.5155H64.5156ZM83.5513 24.0437V39.466H90.4588V31.6929L94.4697 39.466H103.16L96.1252 27.6505L102.173 17.0478H94.0878L90.4588 25.1322V17.0478H83.5513L81.6731 24.0437H83.5513V24.0437ZM117.453 16.3636C111.755 16.3636 105.287 20.406 105.356 28.2881C105.356 35.7971 111.277 39.8132 117.453 39.9999C124.137 40.1554 129.613 35.2064 129.676 28.2881C129.676 20.406 123.151 16.3636 117.453 16.3636V16.3636ZM117.453 23.3909C120.031 23.3909 122.482 25.4378 122.482 28.2881C122.482 31.1384 120.031 33.2162 117.453 33.2162C114.843 33.2162 112.423 31.1384 112.423 28.2881C112.423 25.4378 114.843 23.3909 117.453 23.3909ZM143.332 33.0608V39.466H150.336V38.067C157.052 37.8802 161 32.7501 161 27.495C161 22.5513 157.275 18.074 151.641 17.0477L150.336 22.5513V16.4882H143.332V17.0477C136.648 17.4208 132.637 22.4579 132.668 27.6505C132.668 32.5634 136.329 37.2274 142.155 38.067L143.332 33.0607V33.0608ZM153.996 27.713C153.996 29.3609 152.659 30.9467 150.336 30.9467V24.479C152.532 24.479 153.996 25.9093 153.996 27.713V27.713ZM143.332 24.479V31.071C140.977 31.071 139.64 29.3609 139.64 27.713C139.64 25.9093 141.104 24.3238 143.332 24.479Z" fill="#0A1E32"/>
<path fill-rule="evenodd" clip-rule="evenodd" d="M11.1509 0.000244141C15.2648 6.52039 20.7203 15.6837 22.3051 18.3503C22.8123 19.2038 23.0728 20.4075 22.2662 22.0378C20.2575 26.0971 16.672 31.0108 15.9784 33.0204C15.6525 33.6152 17.9316 33.5606 18.0681 33.3384C19.4265 31.1264 20.5573 28.3146 22.8049 26.6112C25.6034 24.4905 27.9909 26.4773 31.071 30.0191C23.897 29.8036 25.0555 39.0963 20.0649 39.1678C12.5698 39.275 7.70878 39.1793 0 39.1579C1.76698 35.8774 5.02682 30.5866 6.45121 27.6771C6.77527 27.0153 6.89915 26.4797 6.90003 26.1029C6.90092 25.7293 6.7683 25.0354 6.51122 24.5588C5.11527 21.9704 2.81264 18.6456 0.861482 15.2311C0.081635 13.8666 1.42084 10.0227 2.39197 9.86986C4.89789 13.8757 8.38399 19.5014 10.4943 22.7993C10.8819 23.4053 10.9607 24.0114 11.067 24.5303C11.1935 25.1492 10.9908 26.2434 10.6763 26.8076C8.77221 30.2234 5.16105 35.6417 5.37443 36.3496C5.44999 36.6008 6.36661 36.7212 7.92644 36.7003C10.3774 36.6675 15.282 36.8157 18.2625 36.7397C19.6168 36.7051 19.6818 36.7796 20.6542 36.3923C22.9303 35.4857 23.3072 31.9336 25.5324 29.9894C25.8253 29.7334 26.8634 29.1656 26.7683 28.6052C26.6732 28.0449 25.7635 27.5259 25.0604 27.6562C24.1154 27.8314 23.7198 28.0398 23.261 28.5732C22.3188 29.6687 20.5545 32.3664 19.403 34.4164C17.2949 34.453 15.1421 34.5086 12.8684 34.4788C14.348 31.4217 16.4268 28.1506 18.0931 25.0461C18.4299 24.4186 18.6535 23.7959 18.7688 23.1277C19.1077 21.1623 16.987 18.8337 15.5085 16.3875C12.7504 11.8239 11.0271 9.16124 9.5365 6.59002C8.57248 4.92745 9.44849 1.49956 11.1509 0.00025323L11.1509 0.000244141Z" fill="#0A1E32"/>
<path fill-rule="evenodd" clip-rule="evenodd" d="M6.6149 5.24304C9.57928 10.0778 13.9198 17.1124 16.0821 20.4932C16.5826 21.2757 16.7422 21.8616 16.7696 22.4918C16.7893 22.946 16.7963 23.5858 16.3663 24.425C15.0854 26.9244 12.357 31.1811 10.5058 34.3408C9.71694 34.38 9.36428 34.3435 8.59807 34.3309C10.0003 31.7497 11.8884 28.6135 12.9974 26.4378C13.2534 25.9355 13.3982 25.4486 13.3414 24.9889C13.2414 24.1803 13.0525 23.7184 12.6566 23.0463C10.4014 19.2179 7.97189 15.4861 5.18235 10.8169C4.31435 9.36408 5.31986 6.39354 6.61491 5.24305L6.6149 5.24304Z" fill="#0A1E32"/>
</g>
<defs>
<clipPath id="clip0_1_548">
<rect width="161" height="40" fill="white"/>
</clipPath>
</defs>
</svg>
